<svg width="100" height="70" viewBox="0 0 100 70" fill="none" xmlns="http://www.w3.org/2000/svg">
<path d="M11 13C11 11.8954 11.8954 11 13 11H86C87.1046 11 88 11.8954 88 13V56.1569C88 57.1748 87.1046 58 86 58H13C11.8954 58 11 57.1748 11 56.1569V13Z" fill="#F1F1F1"/>
<path d="M47 13H14C13.4477 13 13 13.4477 13 14V32C13 32.5523 13.4477 33 14 33H47C47.5523 33 48 32.5523 48 32V14C48 13.4477 47.5523 13 47 13Z" fill="white"/>
<path d="M46 27H15V31H46V27Z" fill="#58707F"/>
<path d="M46 22H15V26H46V22Z" fill="#58707F"/>
<path d="M30 21C31.6569 21 33 19.6569 33 18C33 16.3431 31.6569 15 30 15C28.3431 15 27 16.3431 27 18C27 19.6569 28.3431 21 30 21Z" fill="#58707F"/>
<mask id="mask0_357_2" style="mask-type:luminance" maskUnits="userSpaceOnUse" x="28" y="16" width="4" height="4">
<path d="M28.2002 18.0002C28.2002 18.9943 29.0061 19.8002 30.0002 19.8002C30.9943 19.8002 31.8002 18.9943 31.8002 18.0002C31.8002 17.0061 30.9943 16.2002 30.0002 16.2002C29.0061 16.2002 28.2002 17.0061 28.2002 18.0002Z" fill="white"/>
</mask>
<g mask="url(#mask0_357_2)">
<g filter="url(#filter0_d_357_2)">
<path d="M31.2155 18.7489C31.0657 18.6488 30.8969 18.589 30.7345 18.5149L30.6449 18.476C30.4937 18.4058 30.4375 18.2665 30.5038 18.1113C30.5459 18.013 30.5812 17.9133 30.5992 17.8078C30.6028 17.7869 30.6071 17.7693 30.6373 17.7718C30.6924 17.7765 30.723 17.7423 30.7385 17.6944C30.7666 17.608 30.7936 17.5209 30.8191 17.4338C30.8289 17.4007 30.8299 17.3657 30.8227 17.3315C30.8159 17.297 30.7983 17.266 30.7619 17.2639C30.7209 17.2613 30.7144 17.2426 30.7176 17.2088C30.723 17.1508 30.7245 17.0921 30.7324 17.0345C30.7867 16.6342 30.5139 16.2703 30.1143 16.2109C30.0912 16.2073 30.0688 16.1997 30.0454 16.1997H30.0034C29.9535 16.1997 29.9007 16.2064 29.8522 16.2177C29.4641 16.3073 29.2276 16.6533 29.2808 17.0543C29.2884 17.1105 29.296 17.1667 29.2934 17.2235C29.2924 17.2444 29.2888 17.2588 29.2628 17.2617C29.2056 17.2682 29.188 17.3092 29.1854 17.36C29.1818 17.4305 29.2143 17.4932 29.2315 17.5594C29.2409 17.5958 29.256 17.6307 29.2657 17.6671C29.2823 17.7286 29.31 17.7758 29.3834 17.7725C29.4047 17.7715 29.4083 17.7855 29.4112 17.8021C29.4321 17.9137 29.4666 18.0209 29.5134 18.1246C29.5523 18.2107 29.5357 18.2956 29.4972 18.3781C29.4742 18.4277 29.4277 18.4472 29.3827 18.4684C29.2287 18.5401 29.0692 18.5987 28.9183 18.6772C28.8697 18.7024 28.8226 18.7312 28.7779 18.7629C28.7059 18.8137 28.6526 18.8799 28.6278 18.9659C28.5788 19.1344 28.559 19.3058 28.5936 19.4797C28.6166 19.5959 28.6868 19.6719 28.8006 19.7065C28.9147 19.741 29.0321 19.7554 29.1498 19.7673C29.3089 19.7828 29.4684 19.7882 29.6279 19.7932C29.6618 19.794 29.6953 19.8004 29.7293 19.8004H30.3177C30.4512 19.7932 30.5851 19.7864 30.7187 19.7785C30.8713 19.7695 31.0233 19.754 31.1723 19.7183C31.3332 19.6795 31.4088 19.5909 31.4207 19.4271C31.4319 19.2698 31.4146 19.115 31.3746 18.9627C31.3505 18.8695 31.2943 18.8018 31.2155 18.7489Z" fill="white"/>
</g>
</g>
<path d="M47 36H14C13.4477 36 13 36.4477 13 37V55C13 55.5523 13.4477 56 14 56H47C47.5523 56 48 55.5523 48 55V37C48 36.4477 47.5523 36 47 36Z" fill="white"/>
<path d="M46 50H15V54H46V50Z" fill="#58707F"/>
<path d="M46 45H15V49H46V45Z" fill="#58707F"/>
<path d="M30 44C31.6569 44 33 42.6569 33 41C33 39.3431 31.6569 38 30 38C28.3431 38 27 39.3431 27 41C27 42.6569 28.3431 44 30 44Z" fill="#58707F"/>
<mask id="mask1_357_2" style="mask-type:luminance" maskUnits="userSpaceOnUse" x="28" y="39" width="4" height="4">
<path d="M28.2002 41.0002C28.2002 41.9943 29.0061 42.8002 30.0002 42.8002C30.9943 42.8002 31.8002 41.9943 31.8002 41.0002C31.8002 40.0061 30.9943 39.2002 30.0002 39.2002C29.0061 39.2002 28.2002 40.0061 28.2002 41.0002Z" fill="white"/>
</mask>
<g mask="url(#mask1_357_2)">
<g filter="url(#filter1_d_357_2)">
<path d="M31.2155 41.7489C31.0657 41.6488 30.8969 41.589 30.7345 41.5149L30.6449 41.476C30.4937 41.4058 30.4375 41.2665 30.5038 41.1113C30.5459 41.013 30.5812 40.9133 30.5992 40.8078C30.6028 40.7869 30.6071 40.7693 30.6373 40.7718C30.6924 40.7765 30.723 40.7423 30.7385 40.6944C30.7666 40.608 30.7936 40.5209 30.8191 40.4338C30.8289 40.4007 30.8299 40.3657 30.8227 40.3315C30.8159 40.297 30.7983 40.266 30.7619 40.2639C30.7209 40.2613 30.7144 40.2426 30.7176 40.2088C30.723 40.1508 30.7245 40.0921 30.7324 40.0345C30.7867 39.6342 30.5139 39.2703 30.1143 39.2109C30.0912 39.2073 30.0688 39.1997 30.0454 39.1997H30.0034C29.9535 39.1997 29.9007 39.2064 29.8522 39.2177C29.4641 39.3073 29.2276 39.6533 29.2808 40.0543C29.2884 40.1105 29.296 40.1667 29.2934 40.2235C29.2924 40.2444 29.2888 40.2588 29.2628 40.2617C29.2056 40.2682 29.188 40.3092 29.1854 40.36C29.1818 40.4305 29.2143 40.4932 29.2315 40.5594C29.2409 40.5958 29.256 40.6307 29.2657 40.6671C29.2823 40.7286 29.31 40.7758 29.3834 40.7725C29.4047 40.7715 29.4083 40.7855 29.4112 40.8021C29.4321 40.9137 29.4666 41.0209 29.5134 41.1246C29.5523 41.2107 29.5357 41.2956 29.4972 41.3781C29.4742 41.4277 29.4277 41.4472 29.3827 41.4684C29.2287 41.5401 29.0692 41.5987 28.9183 41.6772C28.8697 41.7024 28.8226 41.7312 28.7779 41.7629C28.7059 41.8137 28.6526 41.8799 28.6278 41.9659C28.5788 42.1344 28.559 42.3058 28.5936 42.4797C28.6166 42.5959 28.6868 42.6719 28.8006 42.7065C28.9147 42.741 29.0321 42.7554 29.1498 42.7673C29.3089 42.7828 29.4684 42.7882 29.6279 42.7932C29.6618 42.794 29.6953 42.8004 29.7293 42.8004H30.3177C30.4512 42.7932 30.5851 42.7864 30.7187 42.7785C30.8713 42.7695 31.0233 42.754 31.1723 42.7183C31.3332 42.6795 31.4088 42.5909 31.4207 42.4271C31.4319 42.2698 31.4146 42.115 31.3746 41.9627C31.3505 41.8695 31.2943 41.8018 31.2155 41.7489Z" fill="white"/>
</g>
</g>
<path d="M85 36H52C51.4477 36 51 36.4477 51 37V55C51 55.5523 51.4477 56 52 56H85C85.5523 56 86 55.5523 86 55V37C86 36.4477 85.5523 36 85 36Z" fill="white"/>
<path d="M84 50H53V54H84V50Z" fill="#58707F"/>
<path d="M84 45H53V49H84V45Z" fill="#58707F"/>
<path d="M68 44C69.6569 44 71 42.6569 71 41C71 39.3431 69.6569 38 68 38C66.3431 38 65 39.3431 65 41C65 42.6569 66.3431 44 68 44Z" fill="#58707F"/>
<mask id="mask2_357_2" style="mask-type:luminance" maskUnits="userSpaceOnUse" x="66" y="39" width="4" height="4">
<path d="M66.2002 41.0002C66.2002 41.9943 67.0061 42.8002 68.0002 42.8002C68.9943 42.8002 69.8002 41.9943 69.8002 41.0002C69.8002 40.0061 68.9943 39.2002 68.0002 39.2002C67.0061 39.2002 66.2002 40.0061 66.2002 41.0002Z" fill="white"/>
</mask>
<g mask="url(#mask2_357_2)">
<g filter="url(#filter2_d_357_2)">
<path d="M69.2155 41.7489C69.0657 41.6488 68.8969 41.589 68.7345 41.5149L68.6449 41.476C68.4937 41.4058 68.4375 41.2665 68.5038 41.1113C68.5459 41.013 68.5812 40.9133 68.5992 40.8078C68.6028 40.7869 68.6071 40.7693 68.6373 40.7718C68.6924 40.7765 68.723 40.7423 68.7385 40.6944C68.7666 40.608 68.7936 40.5209 68.8191 40.4338C68.8289 40.4007 68.8299 40.3657 68.8227 40.3315C68.8159 40.297 68.7983 40.266 68.7619 40.2639C68.7209 40.2613 68.7144 40.2426 68.7176 40.2088C68.723 40.1508 68.7245 40.0921 68.7324 40.0345C68.7867 39.6342 68.5139 39.2703 68.1143 39.2109C68.0912 39.2073 68.0688 39.1997 68.0454 39.1997H68.0034C67.9535 39.1997 67.9007 39.2064 67.8522 39.2177C67.4641 39.3073 67.2276 39.6533 67.2808 40.0543C67.2884 40.1105 67.296 40.1667 67.2934 40.2235C67.2924 40.2444 67.2888 40.2588 67.2628 40.2617C67.2056 40.2682 67.188 40.3092 67.1854 40.36C67.1818 40.4305 67.2143 40.4932 67.2315 40.5594C67.2409 40.5958 67.256 40.6307 67.2657 40.6671C67.2823 40.7286 67.31 40.7758 67.3834 40.7725C67.4047 40.7715 67.4083 40.7855 67.4112 40.8021C67.4321 40.9137 67.4666 41.0209 67.5134 41.1246C67.5523 41.2107 67.5357 41.2956 67.4972 41.3781C67.4742 41.4277 67.4277 41.4472 67.3827 41.4684C67.2287 41.5401 67.0692 41.5987 66.9183 41.6772C66.8697 41.7024 66.8226 41.7312 66.7779 41.7629C66.7059 41.8137 66.6526 41.8799 66.6278 41.9659C66.5788 42.1344 66.559 42.3058 66.5936 42.4797C66.6166 42.5959 66.6868 42.6719 66.8006 42.7065C66.9147 42.741 67.0321 42.7554 67.1498 42.7673C67.3089 42.7828 67.4684 42.7882 67.6279 42.7932C67.6618 42.794 67.6953 42.8004 67.7293 42.8004H68.3177C68.4512 42.7932 68.5851 42.7864 68.7187 42.7785C68.8713 42.7695 69.0233 42.754 69.1723 42.7183C69.3332 42.6795 69.4088 42.5909 69.4207 42.4271C69.4319 42.2698 69.4146 42.115 69.3746 41.9627C69.3505 41.8695 69.2943 41.8018 69.2155 41.7489Z" fill="white"/>
</g>
</g>
<path d="M85 13H52C51.4477 13 51 13.4477 51 14V32C51 32.5523 51.4477 33 52 33H85C85.5523 33 86 32.5523 86 32V14C86 13.4477 85.5523 13 85 13Z" fill="white"/>
<path d="M84 27H53V31H84V27Z" fill="#58707F"/>
<path d="M84 22H53V26H84V22Z" fill="#58707F"/>
<path d="M68 21C69.6569 21 71 19.6569 71 18C71 16.3431 69.6569 15 68 15C66.3431 15 65 16.3431 65 18C65 19.6569 66.3431 21 68 21Z" fill="#58707F"/>
<mask id="mask3_357_2" style="mask-type:luminance" maskUnits="userSpaceOnUse" x="66" y="16" width="4" height="4">
<path d="M66.2002 18.0002C66.2002 18.9943 67.0061 19.8002 68.0002 19.8002C68.9943 19.8002 69.8002 18.9943 69.8002 18.0002C69.8002 17.0061 68.9943 16.2002 68.0002 16.2002C67.0061 16.2002 66.2002 17.0061 66.2002 18.0002Z" fill="white"/>
</mask>
<g mask="url(#mask3_357_2)">
<g filter="url(#filter3_d_357_2)">
<path d="M69.2155 18.7489C69.0657 18.6488 68.8969 18.589 68.7345 18.5149L68.6449 18.476C68.4937 18.4058 68.4375 18.2665 68.5038 18.1113C68.5459 18.013 68.5812 17.9133 68.5992 17.8078C68.6028 17.7869 68.6071 17.7693 68.6373 17.7718C68.6924 17.7765 68.723 17.7423 68.7385 17.6944C68.7666 17.608 68.7936 17.5209 68.8191 17.4338C68.8289 17.4007 68.8299 17.3657 68.8227 17.3315C68.8159 17.297 68.7983 17.266 68.7619 17.2639C68.7209 17.2613 68.7144 17.2426 68.7176 17.2088C68.723 17.1508 68.7245 17.0921 68.7324 17.0345C68.7867 16.6342 68.5139 16.2703 68.1143 16.2109C68.0912 16.2073 68.0688 16.1997 68.0454 16.1997H68.0034C67.9535 16.1997 67.9007 16.2064 67.8522 16.2177C67.4641 16.3073 67.2276 16.6533 67.2808 17.0543C67.2884 17.1105 67.296 17.1667 67.2934 17.2235C67.2924 17.2444 67.2888 17.2588 67.2628 17.2617C67.2056 17.2682 67.188 17.3092 67.1854 17.36C67.1818 17.4305 67.2143 17.4932 67.2315 17.5594C67.2409 17.5958 67.256 17.6307 67.2657 17.6671C67.2823 17.7286 67.31 17.7758 67.3834 17.7725C67.4047 17.7715 67.4083 17.7855 67.4112 17.8021C67.4321 17.9137 67.4666 18.0209 67.5134 18.1246C67.5523 18.2107 67.5357 18.2956 67.4972 18.3781C67.4742 18.4277 67.4277 18.4472 67.3827 18.4684C67.2287 18.5401 67.0692 18.5987 66.9183 18.6772C66.8697 18.7024 66.8226 18.7312 66.7779 18.7629C66.7059 18.8137 66.6526 18.8799 66.6278 18.9659C66.5788 19.1344 66.559 19.3058 66.5936 19.4797C66.6166 19.5959 66.6868 19.6719 66.8006 19.7065C66.9147 19.741 67.0321 19.7554 67.1498 19.7673C67.3089 19.7828 67.4684 19.7882 67.6279 19.7932C67.6618 19.794 67.6953 19.8004 67.7293 19.8004H68.3177C68.4512 19.7932 68.5851 19.7864 68.7187 19.7785C68.8713 19.7695 69.0233 19.754 69.1723 19.7183C69.3332 19.6795 69.4088 19.5909 69.4207 19.4271C69.4319 19.2698 69.4146 19.115 69.3746 18.9627C69.3505 18.8695 69.2943 18.8018 69.2155 18.7489Z" fill="white"/>
</g>
</g>
<defs>
<filter id="filter0_d_357_2" x="24.5762" y="16.1997" width="10.8477" height="11.6006" filterUnits="userSpaceOnUse" color-interpolation-filters="sRGB">
<feFlood flood-opacity="0" result="BackgroundImageFix"/>
<feColorMatrix in="SourceAlpha" type="matrix" values="0 0 0 0 0 0 0 0 0 0 0 0 0 0 0 0 0 0 127 0" result="hardAlpha"/>
<feOffset dy="4"/>
<feGaussianBlur stdDeviation="2"/>
<feComposite in2="hardAlpha" operator="out"/>
<feColorMatrix type="matrix" values="0 0 0 0 0 0 0 0 0 0 0 0 0 0 0 0 0 0 0.25 0"/>
<feBlend mode="normal" in2="BackgroundImageFix" result="effect1_dropShadow_357_2"/>
<feBlend mode="normal" in="SourceGraphic" in2="effect1_dropShadow_357_2" result="shape"/>
</filter>
<filter id="filter1_d_357_2" x="24.5762" y="39.1997" width="10.8477" height="11.6006" filterUnits="userSpaceOnUse" color-interpolation-filters="sRGB">
<feFlood flood-opacity="0" result="BackgroundImageFix"/>
<feColorMatrix in="SourceAlpha" type="matrix" values="0 0 0 0 0 0 0 0 0 0 0 0 0 0 0 0 0 0 127 0" result="hardAlpha"/>
<feOffset dy="4"/>
<feGaussianBlur stdDeviation="2"/>
<feComposite in2="hardAlpha" operator="out"/>
<feColorMatrix type="matrix" values="0 0 0 0 0 0 0 0 0 0 0 0 0 0 0 0 0 0 0.25 0"/>
<feBlend mode="normal" in2="BackgroundImageFix" result="effect1_dropShadow_357_2"/>
<feBlend mode="normal" in="SourceGraphic" in2="effect1_dropShadow_357_2" result="shape"/>
</filter>
<filter id="filter2_d_357_2" x="62.5762" y="39.1997" width="10.8477" height="11.6006" filterUnits="userSpaceOnUse" color-interpolation-filters="sRGB">
<feFlood flood-opacity="0" result="BackgroundImageFix"/>
<feColorMatrix in="SourceAlpha" type="matrix" values="0 0 0 0 0 0 0 0 0 0 0 0 0 0 0 0 0 0 127 0" result="hardAlpha"/>
<feOffset dy="4"/>
<feGaussianBlur stdDeviation="2"/>
<feComposite in2="hardAlpha" operator="out"/>
<feColorMatrix type="matrix" values="0 0 0 0 0 0 0 0 0 0 0 0 0 0 0 0 0 0 0.25 0"/>
<feBlend mode="normal" in2="BackgroundImageFix" result="effect1_dropShadow_357_2"/>
<feBlend mode="normal" in="SourceGraphic" in2="effect1_dropShadow_357_2" result="shape"/>
</filter>
<filter id="filter3_d_357_2" x="62.5762" y="16.1997" width="10.8477" height="11.6006" filterUnits="userSpaceOnUse" color-interpolation-filters="sRGB">
<feFlood flood-opacity="0" result="BackgroundImageFix"/>
<feColorMatrix in="SourceAlpha" type="matrix" values="0 0 0 0 0 0 0 0 0 0 0 0 0 0 0 0 0 0 127 0" result="hardAlpha"/>
<feOffset dy="4"/>
<feGaussianBlur stdDeviation="2"/>
<feComposite in2="hardAlpha" operator="out"/>
<feColorMatrix type="matrix" values="0 0 0 0 0 0 0 0 0 0 0 0 0 0 0 0 0 0 0.25 0"/>
<feBlend mode="normal" in2="BackgroundImageFix" result="effect1_dropShadow_357_2"/>
<feBlend mode="normal" in="SourceGraphic" in2="effect1_dropShadow_357_2" result="shape"/>
</filter>
</defs>
</svg>
