<svg width="100" height="80" viewBox="0 0 100 80" fill="none" xmlns="http://www.w3.org/2000/svg">
<path d="M12 21H89V70C89 71.1046 88.1046 72 87 72H14C12.8954 72 12 71.1046 12 70V21Z" fill="#F1F1F1"/>
<rect x="15" y="57" width="71" height="12" rx="6" fill="#58707F"/>
<circle cx="30" cy="63" r="4" fill="white"/>
<path d="M27.7778 62.9427C27.7778 64.1382 28.7547 65.1076 29.9596 65.1076C30.3423 65.1076 30.7014 65.0098 31.0143 64.8382L32.2223 65.2222L31.8285 64.0605C32.0272 63.7342 32.1414 63.3516 32.1414 62.9427C32.1414 61.7471 31.1645 60.7778 29.9596 60.7778C28.7547 60.7778 27.7778 61.7471 27.7778 62.9427ZM29.9596 61.1222C30.9712 61.1222 31.7938 61.9387 31.7938 62.9427C31.7938 63.3409 31.6641 63.7098 31.4445 64.0098L31.6738 64.6858L30.969 64.4618C30.6792 64.652 30.3321 64.7631 29.9596 64.7631C28.9481 64.7631 28.1254 63.9467 28.1254 62.9431C28.1254 61.9396 28.9481 61.1222 29.9596 61.1222ZM28.8578 63.4413C28.8712 63.4191 28.9072 63.4058 28.9605 63.3796C29.0138 63.3529 29.277 63.2245 29.3258 63.2071C29.3752 63.1893 29.4107 63.1805 29.4463 63.2338C29.4818 63.2871 29.5845 63.4062 29.6156 63.4418C29.6467 63.4773 29.6778 63.4818 29.7316 63.4551C29.785 63.4285 29.9574 63.3725 30.1618 63.1916C30.321 63.0507 30.4281 62.8773 30.4592 62.824C30.4903 62.7707 30.4623 62.7418 30.4356 62.7156C30.4116 62.6916 30.3823 62.6538 30.3552 62.6227C30.3281 62.5916 30.3196 62.5693 30.3018 62.5342C30.2841 62.4991 30.293 62.468 30.3063 62.4413C30.3196 62.4147 30.4267 62.1538 30.4712 62.0476C30.5156 61.9413 30.5601 61.9591 30.5916 61.9591C30.6227 61.9591 30.6583 61.9547 30.6943 61.9547C30.7298 61.9547 30.7881 61.968 30.837 62.0209C30.8858 62.0738 31.0241 62.2027 31.0241 62.4636C31.0241 62.7249 30.8325 62.9769 30.8058 63.0125C30.7792 63.048 30.4361 63.6009 29.8921 63.8133C29.3481 64.0258 29.3481 63.9547 29.2503 63.9462C29.1525 63.9373 28.9338 63.8178 28.8894 63.6938C28.845 63.5698 28.845 63.4636 28.8578 63.4413Z" fill="#58707F"/>
<path d="M27.7778 62.9427C27.7778 64.1382 28.7547 65.1076 29.9596 65.1076C30.3423 65.1076 30.7014 65.0098 31.0143 64.8382L32.2223 65.2222L31.8285 64.0605C32.0272 63.7342 32.1414 63.3516 32.1414 62.9427C32.1414 61.7471 31.1645 60.7778 29.9596 60.7778C28.7547 60.7778 27.7778 61.7471 27.7778 62.9427ZM29.9596 61.1222C30.9712 61.1222 31.7938 61.9387 31.7938 62.9427C31.7938 63.3409 31.6641 63.7098 31.4445 64.0098L31.6738 64.6858L30.969 64.4618C30.6792 64.652 30.3321 64.7631 29.9596 64.7631C28.9481 64.7631 28.1254 63.9467 28.1254 62.9431C28.1254 61.9396 28.9481 61.1222 29.9596 61.1222ZM28.8578 63.4413C28.8712 63.4191 28.9072 63.4058 28.9605 63.3796C29.0138 63.3529 29.277 63.2245 29.3258 63.2071C29.3752 63.1893 29.4107 63.1805 29.4463 63.2338C29.4818 63.2871 29.5845 63.4062 29.6156 63.4418C29.6467 63.4773 29.6778 63.4818 29.7316 63.4551C29.785 63.4285 29.9574 63.3725 30.1618 63.1916C30.321 63.0507 30.4281 62.8773 30.4592 62.824C30.4903 62.7707 30.4623 62.7418 30.4356 62.7156C30.4116 62.6916 30.3823 62.6538 30.3552 62.6227C30.3281 62.5916 30.3196 62.5693 30.3018 62.5342C30.2841 62.4991 30.293 62.468 30.3063 62.4413C30.3196 62.4147 30.4267 62.1538 30.4712 62.0476C30.5156 61.9413 30.5601 61.9591 30.5916 61.9591C30.6227 61.9591 30.6583 61.9547 30.6943 61.9547C30.7298 61.9547 30.7881 61.968 30.837 62.0209C30.8858 62.0738 31.0241 62.2027 31.0241 62.4636C31.0241 62.7249 30.8325 62.9769 30.8058 63.0125C30.7792 63.048 30.4361 63.6009 29.8921 63.8133C29.3481 64.0258 29.3481 63.9547 29.2503 63.9462C29.1525 63.9373 28.9338 63.8178 28.8894 63.6938C28.845 63.5698 28.845 63.4636 28.8578 63.4413Z" fill="#58707F"/>
<rect x="36" y="61" width="41" height="4" fill="#F1F1F1"/>
<path d="M21 32H85C85.5523 32 86 32.4477 86 33V53C86 53.5523 85.5523 54 85 54H22C21.4477 54 21 53.5523 21 53V32Z" fill="white"/>
<path d="M12 10C12 8.89543 12.8954 8 14 8H87C88.1046 8 89 8.89543 89 10V24H12V10Z" fill="#58707F"/>
<circle cx="20.4222" cy="16.4725" r="5" fill="white"/>
<g filter="url(#filter0_d_3506_2)">
<g clip-path="url(#clip0_3506_2)">
<path d="M22.4485 17.7206C22.1989 17.5538 21.9175 17.4542 21.6469 17.3306L21.4975 17.2658C21.2455 17.1488 21.1519 16.9166 21.2623 16.658C21.3325 16.4942 21.3913 16.328 21.4213 16.1522C21.4273 16.1174 21.4345 16.088 21.4849 16.0922C21.5767 16.1 21.6277 16.043 21.6535 15.9632C21.7003 15.8192 21.7453 15.674 21.7879 15.5288C21.8041 15.4736 21.8059 15.4154 21.7939 15.3584C21.7825 15.3008 21.7531 15.2492 21.6925 15.2456C21.6241 15.2414 21.6133 15.2102 21.6187 15.1538C21.6277 15.0572 21.6301 14.9594 21.6433 14.8634C21.7339 14.1962 21.2791 13.5896 20.6131 13.4906C20.5939 13.4876 20.5759 13.4786 20.5573 13.472H20.2993C20.2639 13.5038 20.2177 13.4924 20.1763 13.502C19.5295 13.6514 19.1353 14.228 19.2241 14.8964C19.2367 14.99 19.2493 15.0836 19.2451 15.1784C19.2433 15.2132 19.2373 15.2372 19.1941 15.242C19.0987 15.2528 19.0693 15.3212 19.0651 15.4058C19.0591 15.5234 19.1131 15.6278 19.1419 15.7382C19.1575 15.7988 19.1827 15.857 19.1989 15.9176C19.2265 16.0202 19.2727 16.0988 19.3951 16.0934C19.4305 16.0916 19.4365 16.115 19.4413 16.1426C19.4761 16.3286 19.5337 16.5074 19.6117 16.6802C19.6765 16.8236 19.6489 16.9652 19.5847 17.1026C19.5463 17.1854 19.4689 17.2178 19.3939 17.2532C19.1371 17.3726 18.8713 17.4704 18.6199 17.6012C18.5389 17.6432 18.4603 17.6912 18.3859 17.744C18.2659 17.8286 18.1771 17.939 18.1357 18.0824C18.0541 18.3632 18.0211 18.6488 18.0787 18.9386C18.1171 19.1324 18.2341 19.259 18.4237 19.3166C18.6139 19.3742 18.8095 19.3982 19.0057 19.418C19.2709 19.4438 19.5367 19.4528 19.8025 19.4612C19.8307 19.4618 19.8583 19.469 19.8865 19.4732H20.9521C21.1747 19.4612 21.3979 19.4498 21.6205 19.4366C21.8749 19.4216 22.1281 19.3958 22.3765 19.3364C22.6447 19.2716 22.7707 19.124 22.7905 18.851C22.8091 18.5888 22.7803 18.3308 22.7137 18.077C22.6735 17.9216 22.5799 17.8088 22.4485 17.7206Z" fill="#58707F"/>
</g>
</g>
<rect x="27" y="13" width="59" height="6" fill="#F1F1F1"/>
<path d="M15.0001 32L21.3006 32L21.3006 36.6974L15.0001 32Z" fill="white"/>
<rect x="25" y="35" width="57" height="4" fill="#58707F"/>
<rect x="25" y="47" width="57" height="4" fill="#58707F"/>
<rect x="25" y="41" width="54" height="4" fill="#58707F"/>
<defs>
<filter id="filter0_d_3506_2" x="13.4222" y="13.4725" width="14" height="14" filterUnits="userSpaceOnUse" color-interpolation-filters="sRGB">
<feFlood flood-opacity="0" result="BackgroundImageFix"/>
<feColorMatrix in="SourceAlpha" type="matrix" values="0 0 0 0 0 0 0 0 0 0 0 0 0 0 0 0 0 0 127 0" result="hardAlpha"/>
<feOffset dy="4"/>
<feGaussianBlur stdDeviation="2"/>
<feComposite in2="hardAlpha" operator="out"/>
<feColorMatrix type="matrix" values="0 0 0 0 0 0 0 0 0 0 0 0 0 0 0 0 0 0 0.25 0"/>
<feBlend mode="normal" in2="BackgroundImageFix" result="effect1_dropShadow_3506_2"/>
<feBlend mode="normal" in="SourceGraphic" in2="effect1_dropShadow_3506_2" result="shape"/>
</filter>
<clipPath id="clip0_3506_2">
<rect width="6" height="6" fill="white" transform="translate(17.4222 13.4725)"/>
</clipPath>
</defs>
</svg>
